<svg width="164" height="40" viewBox="0 0 164 40" fill="none" xmlns="http://www.w3.org/2000/svg">
<path fill-rule="evenodd" clip-rule="evenodd" d="M35.6184 28.9541C37.1335 26.317 38 23.2597 38 20C38 18.3855 37.7874 16.8206 37.3888 15.3318C37.3704 15.3328 37.3519 15.3333 37.3333 15.3333H21.9976L35.6184 28.9541ZM34.5106 30.653C31.234 35.1085 25.9547 38 20 38C14.0446 38 8.76477 35.1079 5.48831 30.6515C5.53502 30.6186 5.57956 30.5814 5.62132 30.5396L9.41092 26.75H30.5858L34.3754 30.5396C34.4178 30.582 34.4631 30.6198 34.5106 30.653ZM28.5858 24.75H11.4109L19.9984 16.1626L28.5858 24.75ZM2 20C2 23.2588 2.86601 26.3154 4.38044 28.9521L17.9992 15.3333H2.66667C2.64807 15.3333 2.62959 15.3328 2.61124 15.3318C2.21257 16.8206 2 18.3855 2 20ZM20 2C12.4141 2 5.92428 6.69261 3.27492 13.3333H36.7251C34.0757 6.69261 27.5859 2 20 2ZM20 40C31.0457 40 40 31.0457 40 20C40 8.9543 31.0457 0 20 0C8.9543 0 0 8.9543 0 20C0 31.0457 8.9543 40 20 40Z" fill="white"/>
<path d="M58.048 32.5V8.372H66.592L66.4 18.836H66.592C66.6987 18.324 67.104 17.4173 67.808 16.116L72.032 8.372H81.6L74.048 20.116L82.4 32.5H72.224L68.064 25.204C67.7867 24.7347 67.4987 24.276 67.2 23.828C66.88 23.2733 66.6773 22.7933 66.592 22.388H66.4L66.592 32.5H58.048ZM96.7453 7.988C100.5 7.988 103.636 9.12933 106.153 11.412C108.777 13.7587 110.089 16.788 110.089 20.5C110.089 24.276 108.788 27.3053 106.185 29.588C103.689 31.7853 100.543 32.884 96.7453 32.884C92.9479 32.884 89.8013 31.7853 87.3053 29.588C84.7026 27.3053 83.4013 24.276 83.4013 20.5C83.4013 16.788 84.7133 13.7587 87.3373 11.412C89.8546 9.12933 92.9906 7.988 96.7453 7.988ZM96.7453 15.924C95.4013 15.924 94.3133 16.3827 93.4813 17.3C92.6493 18.196 92.2333 19.3053 92.2333 20.628C92.2333 21.9933 92.6493 23.1133 93.4813 23.988C94.3346 24.8413 95.4226 25.268 96.7453 25.268C98.0679 25.268 99.1453 24.8413 99.9773 23.988C100.831 23.1133 101.257 21.9933 101.257 20.628C101.257 19.3053 100.841 18.196 100.009 17.3C99.1773 16.3827 98.0893 15.924 96.7453 15.924ZM128.147 8.372H137.299L127.955 32.5H120.531L111.187 8.372H120.339L123.539 19.348C123.944 20.7347 124.147 21.9293 124.147 22.932H124.339C124.339 21.9293 124.541 20.7347 124.947 19.348L128.147 8.372ZM147.073 29.492L146.369 32.5H137.089L145.473 8.372H155.169L163.777 32.5H154.497L153.697 29.492H147.073ZM148.641 23.764H152.161L151.137 19.508C150.967 18.7827 150.775 17.748 150.561 16.404H150.241L148.641 23.764Z" fill="white"/>
</svg>
