<?xml version="1.0" standalone="no"?>
<!DOCTYPE svg PUBLIC "-//W3C//DTD SVG 20010904//EN"
 "http://www.w3.org/TR/2001/REC-SVG-20010904/DTD/svg10.dtd">
<svg version="1.0" xmlns="http://www.w3.org/2000/svg"
 width="700.000000pt" height="700.000000pt" viewBox="0 0 700.000000 700.000000"
 preserveAspectRatio="xMidYMid meet">
<metadata>
Created by potrace 1.14, written by Peter Selinger 2001-2017
</metadata>
<g transform="translate(0.000000,700.000000) scale(0.100000,-0.100000)"
fill="#000000" stroke="none">
<path d="M3278 6995 c-1 -1 -42 -5 -89 -9 -47 -4 -95 -8 -105 -10 -10 -2 -45
-7 -78 -11 -160 -19 -429 -82 -606 -142 -593 -200 -1096 -531 -1516 -999 -221
-245 -445 -591 -569 -874 -25 -58 -50 -114 -55 -125 -45 -93 -150 -427 -176
-560 -2 -11 -10 -54 -19 -95 -29 -147 -35 -192 -52 -370 -15 -162 -8 -591 12
-711 2 -13 6 -46 9 -74 37 -321 160 -722 326 -1060 59 -119 170 -316 197 -350
4 -6 29 -42 54 -80 169 -257 438 -545 719 -770 92 -74 370 -265 386 -265 4 0
15 -6 23 -14 9 -7 81 -47 161 -88 354 -181 736 -303 1109 -354 25 -3 57 -8 71
-10 163 -25 682 -25 842 1 13 2 46 7 73 10 71 10 87 13 115 18 14 3 43 8 65
12 22 4 76 16 120 27 44 10 87 21 96 23 223 51 591 200 823 334 49 28 91 51
93 51 10 0 268 180 353 247 153 119 321 277 450 422 36 41 70 79 76 85 29 30
185 242 240 326 120 184 241 412 315 597 66 163 147 422 175 558 16 75 54 300
60 350 4 33 9 76 11 95 8 71 10 517 3 595 -17 172 -22 220 -25 225 -2 3 -6 30
-10 60 -3 30 -10 71 -15 90 -5 19 -12 51 -15 70 -12 71 -66 270 -101 376 -104
312 -227 563 -410 839 -432 651 -1058 1132 -1799 1383 -167 56 -419 119 -555
137 -19 3 -46 7 -60 10 -13 2 -54 7 -90 11 -36 3 -78 8 -95 11 -33 5 -531 13
-537 8z m522 -358 c14 -3 54 -8 88 -12 88 -8 215 -31 341 -61 851 -201 1585
-756 2022 -1529 77 -137 175 -353 164 -363 -4 -4 -5745 -7 -5827 -3 -18 1 -1
45 94 238 329 664 920 1217 1603 1498 50 20 99 41 110 46 86 38 300 98 516
144 65 14 228 35 314 41 44 4 82 8 84 10 6 6 460 -3 491 -9z m-660 -2326 c0
-3 -533 -539 -1185 -1191 -744 -743 -1188 -1181 -1194 -1175 -20 21 -142 276
-189 395 -59 148 -124 358 -148 475 -54 269 -69 415 -69 685 0 180 4 264 20
400 10 95 54 319 76 386 l9 30 1340 0 c737 0 1340 -2 1340 -5z m3401 0 c4 -1
35 -116 31 -116 -1 0 3 -18 8 -40 10 -41 35 -183 44 -245 15 -112 21 -218 21
-410 0 -292 -14 -416 -81 -735 -11 -56 -81 -280 -114 -369 -48 -129 -168 -386
-209 -446 -9 -12 -242 216 -1196 1170 -652 652 -1185 1187 -1185 1190 0 5
2663 6 2681 1z m-2289 -891 l750 -750 -1502 0 -1502 0 748 750 c412 412 751
749 753 750 2 0 341 -337 753 -750z m1444 -1444 l344 -343 -88 -109 c-81 -101
-284 -314 -377 -394 -439 -382 -981 -640 -1540 -734 -209 -35 -289 -41 -535
-41 -180 0 -242 3 -402 20 -207 22 -566 117 -793 210 -297 122 -634 330 -870
536 -108 94 -299 293 -388 404 l-86 108 342 342 342 343 1854 0 1854 0 343
-342z"/>
</g>
</svg>
